ISO-10303-21;
HEADER;
FILE_DESCRIPTION(('k1fix'),'2;1');
FILE_NAME('out.step','',('k1fix'),('k1fix'),'k1fix','k1fix','');
FILE_SCHEMA(('AUTOMOTIVE_DESIGN'));
ENDSEC;
DATA;
#1=CARTESIAN_POINT('',(0.000000,0.000000,0.000000));
#2=CARTESIAN_POINT('',(1.000000,0.000000,0.000000));
#3=CARTESIAN_POINT('',(1.000000,1.000000,0.000000));
#4=CARTESIAN_POINT('',(0.000000,1.000000,0.000000));
#5=CARTESIAN_POINT('',(0.000000,0.000000,1.000000));
#6=CARTESIAN_POINT('',(1.000000,0.000000,1.000000));
#7=CARTESIAN_POINT('',(1.000000,1.000000,1.000000));
#8=CARTESIAN_POINT('',(0.000000,1.000000,1.000000));
#9=POLY_LOOP('',(#1,#3,#2));
#10=POLY_LOOP('',(#1,#4,#3));
#11=POLY_LOOP('',(#5,#6,#7));
#12=POLY_LOOP('',(#5,#7,#8));
#13=POLY_LOOP('',(#1,#2,#6));
#14=POLY_LOOP('',(#1,#6,#5));
#15=POLY_LOOP('',(#2,#3,#7));
#16=POLY_LOOP('',(#2,#7,#6));
#17=POLY_LOOP('',(#3,#4,#8));
#18=POLY_LOOP('',(#3,#8,#7));
#19=POLY_LOOP('',(#4,#1,#5));
#20=POLY_LOOP('',(#4,#5,#8));
ENDSEC;
END-ISO-10303-21;
